<svg xmlns="http://www.w3.org/2000/svg" xmlns:xlink="http://www.w3.org/1999/xlink" version="1.1" x="0px" y="0px" viewBox="0 0 32 40" enable-background="new 0 0 32 32" xml:space="preserve"><g display="none"><rect x="-31.895" y="-46.333" display="inline" fill="#000000" width="435.561" height="207"/></g><g><path d="M3.308,23.791h11.758l10.012,8.215v-8.215h3.615c1.824,0,3.308-1.51,3.308-3.366V3.361c0-1.856-1.483-3.366-3.308-3.366   H3.308C1.484-0.005,0,1.505,0,3.361v17.063C0,22.281,1.484,23.791,3.308,23.791z M2,3.361c0-0.753,0.586-1.366,1.308-1.366h25.385   C29.413,1.995,30,2.608,30,3.361v17.063c0,0.753-0.587,1.366-1.308,1.366h-5.615v5.986l-7.296-5.986H3.308   C2.586,21.791,2,21.178,2,20.425V3.361z"/><rect x="4.947" y="5.843" width="22.105" height="2"/><rect x="4.947" y="10.746" width="22.105" height="2"/><rect x="4.947" y="15.648" width="22.105" height="2"/></g><g display="none"><g display="inline"><path fill="#000000" stroke="#1A1718" stroke-miterlimit="10" d="M29.115,0.765H2.885c-1.312,0-2.385,1.102-2.385,2.45v17.663    c0,1.347,1.073,2.45,2.385,2.45h12.519l8.942,7.349v-7.349h4.769c1.312,0,2.385-1.102,2.385-2.45V3.215    C31.5,1.868,30.427,0.765,29.115,0.765z"/><line fill="#000000" stroke="#1A1718" stroke-miterlimit="10" x1="4.579" y1="6.819" x2="27.421" y2="6.819"/><line fill="#000000" stroke="#1A1718" stroke-miterlimit="10" x1="4.579" y1="11.894" x2="27.421" y2="11.894"/><line fill="#000000" stroke="#1A1718" stroke-miterlimit="10" x1="4.579" y1="16.969" x2="27.421" y2="16.969"/></g></g><g display="none"><path display="inline" d="M28.692-0.005H3.308C1.484-0.005,0,1.505,0,3.361v17.063c0,1.856,1.484,3.366,3.308,3.366h11.758   l10.012,8.215v-8.215h3.615c1.824,0,3.308-1.51,3.308-3.366V3.361C32,1.505,30.517-0.005,28.692-0.005z M27.053,17.648H4.947v-2   h22.105V17.648z M27.053,12.746H4.947v-2h22.105V12.746z M27.053,7.843H4.947v-2h22.105V7.843z"/></g><text x="0" y="47" fill="#000000" font-size="5px" font-weight="bold" font-family="'Helvetica Neue', Helvetica, Arial-Unicode, Arial, Sans-serif">Created by Icons By Alfredo</text><text x="0" y="52" fill="#000000" font-size="5px" font-weight="bold" font-family="'Helvetica Neue', Helvetica, Arial-Unicode, Arial, Sans-serif">from the Noun Project</text></svg>